<?xml version="1.0" standalone="no"?>

<svg version="1.0" xmlns="http://www.w3.org/2000/svg"
 width="500.000000pt" height="500.000000pt" viewBox="0 0 500.000000 500.000000"
 preserveAspectRatio="xMidYMid meet">

<g transform="translate(0.000000,500.000000) scale(0.100000,-0.100000)"
fill="#000000" stroke="none">
<path d="M660 4913 c-44 -23 -59 -39 -82 -82 l-28 -54 2 -2291 3 -2291 24 -43
c26 -45 83 -85 138 -96 63 -14 61 -15 568 279 233 135 275 159 348 202 34 20
80 46 102 58 40 23 112 64 228 132 34 20 80 46 102 58 22 12 67 38 100 57 33
19 112 65 175 102 63 36 122 71 130 76 8 5 74 43 145 84 130 74 768 442 900
519 39 22 91 53 116 69 25 15 49 28 52 28 4 0 31 16 61 35 30 19 57 35 59 35
3 0 35 18 71 40 37 22 90 53 119 69 60 33 105 59 452 261 88 51 179 104 203
117 58 34 108 102 123 167 15 69 -1 142 -45 199 -35 46 -52 57 -356 232 -113
65 -232 134 -265 153 -33 19 -105 61 -160 92 -55 31 -128 73 -162 94 -35 20
-89 51 -120 70 -32 18 -103 59 -158 91 -55 32 -126 73 -157 91 -101 59 -182
106 -223 129 -22 12 -69 39 -105 60 -36 20 -85 49 -110 63 -25 14 -57 33 -72
43 -14 11 -29 19 -32 19 -3 0 -27 13 -53 28 -57 34 -84 50 -538 313 -192 111
-406 235 -475 274 -127 74 -347 200 -455 263 -33 19 -73 42 -90 50 -16 8 -41
23 -55 33 -14 9 -46 28 -70 42 -25 13 -74 41 -110 62 -176 103 -216 112 -300
68z m348 -458 c12 -9 50 -32 84 -52 139 -79 255 -145 333 -191 33 -19 76 -43
95 -54 19 -11 103 -60 185 -108 83 -48 213 -123 290 -167 165 -95 173 -100
335 -194 69 -40 166 -96 215 -124 459 -264 567 -327 615 -355 30 -18 73 -43
95 -55 22 -12 68 -38 103 -58 68 -40 169 -99 217 -127 58 -33 361 -208 494
-284 73 -43 147 -86 165 -95 36 -20 56 -54 56 -94 0 -55 2 -54 -255 -202 -55
-32 -174 -101 -265 -153 -91 -52 -178 -103 -195 -112 -48 -28 -149 -87 -217
-127 -35 -20 -81 -46 -103 -58 -22 -12 -67 -38 -100 -58 -33 -19 -157 -90
-275 -159 -118 -68 -224 -129 -235 -136 -11 -7 -101 -59 -200 -115 -99 -57
-299 -172 -445 -257 -146 -84 -323 -187 -395 -228 -71 -41 -157 -91 -190 -110
-33 -19 -96 -56 -140 -81 -44 -25 -87 -50 -96 -56 -15 -9 -101 -58 -172 -97
-37 -21 -78 -23 -95 -6 -17 17 -17 3899 0 3916 17 17 69 15 96 -3z"/>
</g>
</svg>
