
<svg xmlns="http://www.w3.org/2000/svg" xmlns:xlink="http://www.w3.org/1999/xlink" version="1.1" width="1080" height="1080" viewBox="0 0 1080 1080" xml:space="preserve">
<defs>
</defs>
<g transform="matrix(1 0 0 1 540 540)" id="2c52609a-b224-472f-91da-77e495c8ea51"  >
<rect style="stroke: none; stroke-width: 1; stroke-dasharray: none; stroke-linecap: butt; stroke-dashoffset: 0; stroke-linejoin: miter; stroke-miterlimit: 4; fill: rgb(255,255,255); fill-rule: nonzero; opacity: 1; visibility: hidden;" vector-effect="non-scaling-stroke"  x="-540" y="-540" rx="0" ry="0" width="1080" height="1080" />
</g>
<g transform="matrix(1 0 0 1 540 540)" id="29616d40-3924-4518-bf54-10276d260170"  >
</g>
<g transform="matrix(1 0 0 1 540 540)"  >
<path style="stroke: rgb(22,62,249); stroke-width: 2; stroke-dasharray: none; stroke-linecap: round; stroke-dashoffset: 0; stroke-linejoin: round; stroke-miterlimit: 4; fill: rgb(116,183,253); fill-rule: nonzero; opacity: 1;" vector-effect="non-scaling-stroke"  transform=" translate(-12, -11.73)" d="M 22.54 6.42 C 22.29821078454589 5.4539913811398275 21.55819824718192 4.691091858084187 20.599999999999994 4.419999999999999 C 18.88 4 12 4 12 4 C 12 4 5.12 4 3.4000000000000004 4.46 C 2.441801752818078 4.73109185808419 1.701789215454107 5.493991381139829 1.4600000000000004 6.46 C 1.1452145569903862 8.205555508598218 0.9912359272251183 9.976309750898789 0.9999999999999996 11.750000000000007 C 0.988779294186588 13.53704498457645 1.1427676876923338 15.321301804979946 1.4600000000000009 17.07999999999998 C 1.7263503042581203 18.01525632520188 2.4620338572197764 18.743355511638157 3.3999999999999986 19 C 5.12 19.46 12 19.46 12 19.46 C 12 19.46 18.88 19.46 20.6 19 C 21.558198247181927 18.72890814191581 22.298210784545898 17.966008618860172 22.540000000000003 17 C 22.852357159083276 15.267588469662476 23.006326099885886 13.510334253980531 23.000000000000004 11.749999999999993 C 23.011220705813415 9.96295501542354 22.857232312307673 8.17869819502004 22.540000000000003 6.419999999999996 z" stroke-linecap="round" />
</g>
<g transform="matrix(0 0 0 0 0 0)"  >
<g style=""   >
</g>
</g>
<g transform="matrix(0 0 0 0 0 0)"  >
<g style=""   >
</g>
</g>
<g transform="matrix(0 0 0 0 0 0)"  >
<g style=""   >
</g>
</g>
<g transform="matrix(0 0 0 0 0 0)"  >
<g style=""   >
</g>
</g>
<g transform="matrix(0 0 0 0 0 0)"  >
<g style=""   >
</g>
</g>
<g transform="matrix(0 0 0 0 0 0)"  >
<g style=""   >
</g>
</g>
<g transform="matrix(0 0.08 -0.08 0 540 540)" id="d896ecec-ea62-42ee-a313-fb47887d69c2"  >
<polygon style="stroke: rgb(0,0,0); stroke-width: 0; stroke-dasharray: none; stroke-linecap: butt; stroke-dashoffset: 0; stroke-linejoin: miter; stroke-miterlimit: 4; fill: rgb(255,255,255); fill-rule: nonzero; opacity: 1;" vector-effect="non-scaling-stroke"  points="-37.43,32.41 0,-32.41 37.43,32.41 " />
</g>
<g transform="matrix(0 0 0 0 0 0)"  >
<g style=""   >
</g>
</g>
</svg>